<svg xmlns="http://www.w3.org/2000/svg" viewBox="0 0 800 800" fill="none"><defs></defs><rect x="0" y="0" width="800" height="800" rx="0" fill="#ecfdf5" /><path d="M 0 6 L 800 6" fill="none" stroke="#a7f3d0" stroke-width="2" opacity="0.35"/><path d="M 0 59 L 800 59" fill="none" stroke="#a7f3d0" stroke-width="2" opacity="0.35"/><path d="M 0 120 L 800 120" fill="none" stroke="#a7f3d0" stroke-width="2" opacity="0.35"/><path d="M 0 176 L 800 176" fill="none" stroke="#a7f3d0" stroke-width="2" opacity="0.35"/><path d="M 0 224 L 800 224" fill="none" stroke="#a7f3d0" stroke-width="2" opacity="0.35"/><path d="M 0 283 L 800 283" fill="none" stroke="#a7f3d0" stroke-width="2" opacity="0.35"/><path d="M 0 342 L 800 342" fill="none" stroke="#a7f3d0" stroke-width="2" opacity="0.35"/><path d="M 0 394 L 800 394" fill="none" stroke="#a7f3d0" stroke-width="2" opacity="0.35"/><path d="M 0 454 L 800 454" fill="none" stroke="#a7f3d0" stroke-width="2" opacity="0.35"/><path d="M 0 506 L 800 506" fill="none" stroke="#a7f3d0" stroke-width="2" opacity="0.35"/><path d="M 0 566 L 800 566" fill="none" stroke="#a7f3d0" stroke-width="2" opacity="0.35"/><path d="M 0 618 L 800 618" fill="none" stroke="#a7f3d0" stroke-width="2" opacity="0.35"/><path d="M 0 680 L 800 680" fill="none" stroke="#a7f3d0" stroke-width="2" opacity="0.35"/><path d="M 0 729 L 800 729" fill="none" stroke="#a7f3d0" stroke-width="2" opacity="0.35"/><path d="M 0 791 L 800 791" fill="none" stroke="#a7f3d0" stroke-width="2" opacity="0.35"/></svg>